# Blender v2.78 (sub 0) OBJ File: ''
# www.blender.org
mtllib roadTile_025.mtl
o Mesh1_Group1_Model
v 0.000000 0.000000 -1.080000
v 0.000000 0.000000 -0.945000
v 0.000000 0.198000 -0.945000
v 0.000000 0.198000 -1.080000
v 1.080000 0.000000 -0.000000
v 0.000000 0.000000 0.000000
v 0.000000 0.000000 -0.135000
v 1.080000 0.000000 -1.080000
v 1.080000 0.000000 -0.945000
v 1.080000 0.000000 -0.135000
v 0.000000 0.198000 0.000000
v 1.080000 0.198000 0.000000
v 0.000000 0.198000 -0.135000
v 1.080000 0.198000 -0.135000
v 1.080000 0.198000 -0.945000
v 1.080000 0.226800 -0.945000
v 1.080000 0.226800 -0.810000
v 1.080000 0.216000 -0.810000
v 1.080000 0.108000 -0.810000
v 1.080000 0.108000 -0.270000
v 1.080000 0.216000 -0.270000
v 1.080000 0.226800 -0.270000
v 1.080000 0.226800 -0.135000
v 1.080000 0.198000 -1.080000
v 0.000000 0.226800 -0.945000
v 0.000000 0.226800 -0.810000
v 0.000000 0.226800 -0.135000
v 0.000000 0.226800 -0.270000
v 0.000000 0.216000 -0.270000
v 0.000000 0.108000 -0.270000
v 0.000000 0.108000 -0.810000
v 0.000000 0.216000 -0.810000
v 0.675000 0.216000 -0.270000
v 0.405000 0.216000 -0.270000
v 0.675000 0.216000 -0.337500
v 0.675000 0.216000 -0.405000
v 0.675000 0.216000 -0.540000
v 0.675000 0.216000 -0.675000
v 0.675000 0.216000 -0.742500
v 0.405000 0.216000 -0.742500
v 0.405000 0.216000 -0.472500
v 0.405000 0.216000 -0.337500
v 0.405000 0.216000 -0.405000
v 0.675000 0.216000 -0.472500
v 0.405000 0.216000 -0.540000
v 0.405000 0.216000 -0.607500
v 0.675000 0.216000 -0.607500
v 0.405000 0.216000 -0.675000
vt -3.0000 0.0000
vt -2.6250 0.0000
vt -2.6250 0.5500
vt -3.0000 0.5500
vt -3.0000 0.0000
vt -0.0000 -0.0000
vt -0.0000 0.3750
vt 0.0000 2.6250
vt 0.0000 3.0000
vt -3.0000 3.0000
vt -3.0000 2.6250
vt -3.0000 0.3750
vt 0.0000 0.5500
vt 3.0000 0.0000
vt 3.0000 0.5500
vt -0.3750 0.5500
vt -0.3750 0.0000
vt 3.0000 0.0000
vt 3.0000 0.3750
vt 0.0000 0.3750
vt 0.0000 0.0000
vt 0.0000 0.0000
vt 0.3750 0.0000
vt 0.3750 0.5500
vt 0.0000 0.5500
vt 3.0000 0.5500
vt 2.6250 0.5500
vt 2.6250 0.0000
vt 3.0000 0.0000
vt 0.0000 3.0000
vt 0.0000 2.6250
vt 3.0000 2.6250
vt 3.0000 3.0000
vt -3.0000 0.5500
vt -3.0000 0.0000
vt -0.0000 0.0000
vt -0.0000 0.5500
vt 2.6250 0.6300
vt 2.2500 0.6300
vt 2.2500 0.6000
vt 2.2500 0.3000
vt 0.7500 0.3000
vt 0.7500 0.6000
vt 0.7500 0.6300
vt 0.3750 0.6300
vt -0.0000 0.6300
vt -3.0000 0.6300
vt -3.0000 0.5500
vt -0.0000 0.5500
vt 3.0000 2.2500
vt 3.0000 2.6250
vt 0.0000 2.6250
vt 0.0000 2.2500
vt -0.3750 0.6300
vt -0.7500 0.6300
vt -0.7500 0.6000
vt -0.7500 0.3000
vt -2.2500 0.3000
vt -2.2500 0.6000
vt -2.2500 0.6300
vt -2.6250 0.6300
vt 3.0000 0.6300
vt 0.0000 0.6300
vt 0.0000 0.5500
vt 3.0000 0.5500
vt 0.0000 0.7500
vt 0.0000 0.3750
vt 3.0000 0.3750
vt 3.0000 0.7500
vt -3.0000 0.6000
vt -1.8750 0.6000
vt -1.1250 0.6000
vt -0.0000 0.6000
vt -0.0000 0.6300
vt -3.0000 0.6300
vt 0.0000 0.6300
vt 0.0000 0.6000
vt 3.0000 0.6000
vt 3.0000 0.6300
vt 3.0000 2.2500
vt 1.8750 0.7500
vt 3.0000 0.7500
vt 1.8750 0.9375
vt 1.8750 1.1250
vt 1.8750 1.5000
vt 1.8750 1.8750
vt 1.8750 2.0625
vt 1.1250 2.0625
vt 0.0000 2.2500
vt 0.0000 0.7500
vt 1.1250 1.3125
vt 1.1250 0.7500
vt 1.1250 0.9375
vt 1.1250 1.1250
vt 1.8750 1.3125
vt 1.1250 1.5000
vt 1.1250 1.6875
vt 1.8750 1.6875
vt 1.1250 1.8750
vn -1.0000 0.0000 0.0000
vn 0.0000 -1.0000 -0.0000
vn 0.0000 -0.0000 1.0000
vn 0.0000 1.0000 -0.0000
vn 1.0000 0.0000 0.0000
vn 0.0000 0.0000 -1.0000
vn 0.0000 0.7648 -0.6442
vn 0.0003 1.0000 -0.0001
vn -0.5926 0.5927 -0.5454
vn -0.2806 0.4767 -0.8331
vn -0.4410 0.4409 -0.7817
vn 0.0003 1.0000 -0.0000
usemtl Grass
s 1
f 1/1/1 2/2/1 3/3/1 4/4/1
f 5/5/2 6/6/2 7/7/2 2/8/2 1/9/2 8/10/2 9/11/2 10/12/2
f 11/13/3 6/6/3 5/14/3 12/15/3
f 11/13/1 13/16/1 7/17/1 6/6/1
f 12/18/4 14/19/4 13/20/4 11/21/4
f 5/22/5 10/23/5 14/24/5 12/25/5
f 24/26/5 15/27/5 9/28/5 8/29/5
f 4/30/4 3/31/4 15/32/4 24/33/4
f 24/34/6 8/35/6 1/36/6 4/37/6
usemtl Stone
f 10/23/5 9/28/5 15/27/5 16/38/5 17/39/5 18/40/5 19/41/5 20/42/5 21/43/5 22/44/5 23/45/5 14/24/5
f 25/46/6 16/47/6 15/48/6 3/49/6
f 17/50/4 16/51/4 25/52/4 26/53/4
f 2/2/1 7/17/1 13/16/1 27/54/1 28/55/1 29/56/1 30/57/1 31/58/1 32/59/1 26/60/1 25/61/1 3/3/1
f 23/62/3 27/63/3 13/64/3 14/65/3
f 28/66/4 27/67/4 23/68/4 22/69/4
f 21/70/6 33/71/6 34/72/6 29/73/6 28/74/6 22/75/6
f 26/76/3 32/77/3 18/78/3 17/79/3
usemtl Asphalt
f 18/80/4 33/81/4 21/82/4
f 18/80/4 35/83/4 33/81/4
f 18/80/4 36/84/4 35/83/4
f 18/80/4 37/85/4 36/84/4
f 18/80/4 38/86/4 37/85/4
f 18/80/4 39/87/4 38/86/4
f 18/80/4 40/88/4 39/87/4
f 32/89/4 40/88/4 18/80/4
f 40/88/4 32/89/4 29/90/4
f 32/59/1 31/58/1 30/57/1 29/56/1
f 29/90/4 41/91/4 40/88/4
f 41/91/4 29/90/4 34/92/4
f 41/91/4 34/92/4 42/93/7
f 36/84/4 42/93/7 35/83/4
f 42/93/7 36/84/4 43/94/8
f 37/85/4 44/95/9 36/84/4
f 45/96/10 44/95/9 37/85/4
f 45/96/10 41/91/4 44/95/9
f 41/91/4 45/96/10 46/97/11
f 38/86/4 47/98/4 37/85/4
f 38/86/4 46/97/11 47/98/4
f 46/97/11 38/86/4 48/99/12
f 40/88/4 46/97/11 48/99/12
f 40/88/4 41/91/4 46/97/11
f 41/91/4 42/93/7 43/94/8
f 21/43/5 20/42/5 19/41/5 18/40/5
usemtl White
f 33/81/4 35/83/4 42/93/7 34/92/4
f 36/84/4 44/95/9 41/91/4 43/94/8
f 37/85/4 47/98/4 46/97/11 45/96/10
f 38/86/4 39/87/4 40/88/4 48/99/12
