# Blender v2.78 (sub 0) OBJ File: ''
# www.blender.org
mtllib modularBuildings_054.mtl
o Mesh1_Group1_Model.002
v -0.007609 0.452282 -0.141203
v -0.007609 0.452282 -0.233219
v 0.042391 0.452282 -0.233219
v 0.042391 0.452282 -0.141203
v -0.007609 0.500024 -0.280961
v -0.007609 0.500024 -0.093461
v -0.007609 0.078149 -0.093461
v -0.007609 0.125890 -0.141203
v -0.007609 0.078149 -0.280961
v -0.007609 0.125890 -0.233219
v 0.042391 0.125890 -0.141203
v 0.042391 0.125890 -0.233219
v 0.042391 0.292020 -0.141203
v 0.042391 0.244278 -0.141203
v 0.042391 0.500024 -0.093461
v 0.042391 0.500024 -0.280961
v 0.042391 0.078149 -0.280961
v 0.042391 0.292020 -0.233219
v 0.042391 0.244278 -0.233219
v 0.042391 0.078149 -0.093461
vt 0.0000 1.8796
vt 0.0000 5.5023
vt -1.9685 5.5023
vt -1.9685 1.8796
vt -1.8796 14.7297
vt -7.3819 16.6093
vt -5.5023 14.7297
vt 0.0000 16.6093
vt 0.0000 0.0000
vt -1.8796 1.8796
vt -7.3819 0.0000
vt -5.5023 1.8796
vt 0.0000 5.5023
vt 0.0000 1.8796
vt 1.9685 1.8796
vt 1.9685 5.5023
vt -1.9685 8.4201
vt -1.9685 6.5405
vt -1.9685 1.8796
vt 0.0000 14.7297
vt -1.9685 14.7297
vt 1.8796 14.7297
vt 1.8796 6.5405
vt 1.8796 8.4201
vt 1.8796 1.8796
vt 0.0000 16.6093
vt 7.3819 16.6093
vt 5.5023 14.7297
vt 7.3819 -0.0000
vt 5.5023 8.4201
vt 5.5023 6.5405
vt 5.5023 1.8796
vt 0.0000 -0.0000
vt 1.9685 0.0000
vt 1.9685 16.6093
vt 1.9685 0.0000
vt 1.9685 7.3819
vt 0.0000 7.3819
vt 0.0000 0.0000
vt -1.9685 16.6093
vt -1.9685 0.0000
vt 0.0000 0.0000
vt 0.0000 16.6093
vt -1.9685 7.3819
vt -1.9685 0.0000
vt 0.0000 7.3819
vt 1.9685 6.5405
vt 1.9685 8.4201
vt 1.9685 14.7297
vt 0.0000 14.7297
vt 0.0000 1.8796
vt 1.9685 1.8796
vn 0.0000 -1.0000 0.0000
vn -1.0000 0.0000 0.0000
vn 0.0000 1.0000 0.0000
vn 0.0000 0.0000 -1.0000
vn 1.0000 0.0000 0.0000
vn 0.0000 -0.0000 1.0000
usemtl Metal.001
s 1
f 1/1/1 2/2/1 3/3/1 4/4/1
f 1/5/2 5/6/2 2/7/2
f 1/5/2 6/8/2 5/6/2
f 6/8/2 1/5/2 7/9/2
f 8/10/2 7/9/2 1/5/2
f 7/9/2 8/10/2 9/11/2
f 9/11/2 8/10/2 10/12/2
f 10/13/3 8/14/3 11/15/3 12/16/3
f 13/17/4 14/18/4 11/19/4 8/14/4 1/20/4 4/21/4
f 4/22/5 14/23/2 13/24/2
f 4/22/5 11/25/5 14/23/2
f 4/22/5 15/26/5 11/25/5
f 15/26/5 4/22/5 16/27/5
f 16/27/5 4/22/5 3/28/5
f 16/27/5 3/28/5 17/29/5
f 18/30/5 17/29/5 3/28/5
f 19/31/5 17/29/5 18/30/5
f 12/32/5 17/29/5 19/31/5
f 11/25/5 17/29/5 12/32/5
f 11/25/5 20/33/5 17/29/5
f 20/33/5 11/25/5 15/26/5
f 20/34/6 15/35/6 6/8/6 7/9/6
f 15/36/3 16/37/3 5/38/3 6/39/3
f 16/40/4 17/41/4 9/42/4 5/43/4
f 17/44/1 20/45/1 7/9/1 9/46/1
f 9/11/2 10/12/2 5/6/2
f 2/7/2 5/6/2 10/12/2
f 19/47/6 18/48/6 3/49/6 2/50/6 10/51/6 12/52/6
o Mesh1_Group1_Model.001
v 0.038153 0.000000 -0.626400
v -0.011847 0.000000 -0.626400
v -0.011847 0.500000 -0.626400
v 0.038153 0.500000 -0.626400
v 0.038153 0.000000 -0.376400
v -0.011847 0.000000 -0.376400
v 0.038153 0.500000 -0.376400
v -0.011847 0.500000 -0.376400
v -0.011847 0.445764 -0.430636
v -0.011847 0.054236 -0.430636
v -0.011847 0.054236 -0.572164
v 0.013153 0.054236 -0.430636
v 0.013153 0.054236 -0.572164
v 0.013153 0.445764 -0.430636
v -0.011847 0.445764 -0.572164
v 0.013153 0.445764 -0.572164
vt -1.9685 0.0000
vt 0.0000 0.0000
vt 0.0000 19.6850
vt -1.9685 19.6850
vt 0.0000 9.8425
vt -1.9685 9.8425
vt -1.9685 0.0000
vt 0.0000 0.0000
vt 0.0000 0.0000
vt 9.8425 0.0000
vt 9.8425 19.6850
vt 0.0000 19.6850
vt 1.9685 9.8425
vt 0.0000 9.8425
vt 0.0000 0.0000
vt 1.9685 0.0000
vt -2.1353 17.5498
vt 0.0000 19.6850
vt -9.8425 19.6850
vt -2.1353 2.1353
vt -9.8425 0.0000
vt -7.7073 2.1353
vt 0.0000 7.7073
vt 0.0000 2.1353
vt 0.9843 2.1353
vt 0.9843 7.7073
vt 0.0000 17.5498
vt -0.9843 17.5498
vt -0.9843 2.1353
vt 0.0000 2.1353
vt 0.0000 7.7073
vt -0.9843 7.7073
vt -0.9843 2.1353
vt -7.7073 17.5498
vt 0.0000 17.5498
vt 0.0000 2.1353
vt 0.9843 2.1353
vt 0.9843 17.5498
vt -2.1353 17.5498
vt -7.7073 17.5498
vt -7.7073 2.1353
vt -2.1353 2.1353
vt 1.9685 0.0000
vt 1.9685 19.6850
vn 0.0000 0.0000 -1.0000
vn 0.0000 -1.0000 -0.0000
vn 1.0000 0.0000 0.0000
vn 0.0000 1.0000 0.0000
vn -1.0000 -0.0000 0.0000
vn 0.0000 0.0000 1.0000
usemtl Metal
s 1
f 21/53/7 22/54/7 23/55/7 24/56/7
f 22/57/8 21/58/8 25/59/8 26/60/8
f 25/61/9 21/62/9 24/63/9 27/64/9
f 24/65/10 23/66/10 28/67/10 27/68/10
f 29/69/11 28/70/11 23/71/11
f 28/70/11 29/69/11 26/60/11
f 30/72/11 26/60/11 29/69/11
f 26/60/11 30/72/11 22/73/11
f 22/73/11 30/72/11 31/74/11
f 31/75/10 30/76/10 32/77/10 33/78/10
f 30/76/7 29/79/7 34/80/7 32/81/7
f 29/82/8 35/83/8 36/84/8 34/85/8
f 29/69/11 23/71/11 35/86/11
f 35/86/11 23/71/11 31/74/11
f 22/73/11 31/74/11 23/71/11
f 35/87/12 31/88/12 33/89/12 36/90/12
f 34/91/11 36/92/11 33/93/11 32/94/11
f 26/60/12 25/95/12 27/96/12 28/70/12
o Mesh1_Group1_Model
v 0.000000 0.500000 -0.093750
v 0.000000 0.500000 -0.281250
v 0.100000 0.500000 -0.281250
v 0.100000 0.500000 -0.093750
v 0.000000 0.625000 -1.000000
v 0.000000 0.625000 0.000000
v 0.000000 0.000000 0.000000
v 0.000000 0.078125 -0.093750
v 0.000000 0.000000 -0.375000
v 0.000000 0.078125 -0.281250
v 0.100000 0.078125 -0.093750
v 0.100000 0.078125 -0.281250
v 0.000000 0.500000 -0.375000
v 0.000000 0.500000 -0.625000
v 0.000000 0.500000 -0.718750
v 0.000000 0.500000 -0.906250
v 0.000000 0.078125 -0.906250
v 0.000000 0.000000 -1.000000
v 0.000000 0.078125 -0.718750
v 0.000000 0.000000 -0.625000
v 0.100000 0.000000 -0.625000
v 0.100000 0.500000 -0.625000
v 1.000000 0.000000 0.000000
v 0.100000 0.000000 -0.375000
v 1.000000 0.000000 -1.000000
v 1.000000 0.625000 0.000000
v 1.000000 0.625000 -1.000000
v 0.100000 0.500000 -0.375000
v 0.100000 0.500000 -0.718750
v 0.100000 0.078125 -0.718750
v 0.100000 0.500000 -0.906250
v 0.100000 0.078125 -0.906250
vt 0.0000 3.6909
vt 0.0000 11.0728
vt -3.9370 11.0728
vt -3.9370 3.6909
vt -3.6909 19.6850
vt -39.3701 24.6063
vt -11.0728 19.6850
vt 0.0000 24.6063
vt 0.0000 0.0000
vt -3.6909 3.0758
vt -14.7638 0.0000
vt -11.0728 3.0758
vt 0.0000 11.0728
vt 0.0000 3.6909
vt 3.9370 3.6909
vt 3.9370 11.0728
vt 0.0000 3.0758
vt 0.0000 19.6850
vt -3.9370 19.6850
vt -3.9370 3.0758
vt 0.0000 19.6850
vt 0.0000 3.0758
vt 3.9370 3.0758
vt 3.9370 19.6850
vt -14.7638 19.6850
vt -24.6063 19.6850
vt -28.2972 19.6850
vt -35.6791 19.6850
vt -35.6791 3.0758
vt -39.3701 0.0000
vt -28.2972 3.0758
vt -24.6063 0.0000
vt 0.0000 19.6850
vt 0.0000 0.0000
vt 3.9370 0.0000
vt 3.9370 19.6850
vt -39.3701 0.0000
vt 0.0000 14.7638
vt -3.9370 14.7638
vt -3.9370 24.6063
vt 0.0000 24.6063
vt 0.0000 39.3701
vt -39.3701 39.3701
vt 39.3701 0.0000
vt 39.3701 24.6063
vt 39.3701 0.0000
vt 39.3701 24.6063
vt 0.0000 24.6063
vt 0.0000 0.0000
vt 0.0000 0.0000
vt 0.0000 24.6063
vt -39.3701 24.6063
vt -39.3701 0.0000
vt 39.3701 39.3701
vt -0.0000 39.3701
vt -0.0000 0.0000
vt 39.3701 0.0000
vt 0.0000 0.0000
vt 0.0000 19.6850
vt -3.9370 19.6850
vt -3.9370 0.0000
vt 0.0000 14.7638
vt 0.0000 24.6063
vt -3.9370 24.6063
vt -3.9370 14.7638
vt 0.0000 3.0758
vt 0.0000 19.6850
vt -3.9370 19.6850
vt -3.9370 3.0758
vt 0.0000 28.2972
vt 0.0000 35.6791
vt -3.9370 35.6791
vt -3.9370 28.2972
vt 0.0000 19.6850
vt 0.0000 3.0758
vt 3.9370 3.0758
vt 3.9370 19.6850
vt 0.0000 35.6791
vt 0.0000 28.2972
vt 3.9370 28.2972
vt 3.9370 35.6791
vt -11.0728 19.6850
vt -11.0728 3.0758
vt -3.6909 3.0758
vt -3.6909 19.6850
vt -14.7638 19.6850
vt -24.6063 19.6850
vt -24.6063 0.0000
vt -14.7638 0.0000
vt -28.2972 19.6850
vt -35.6791 19.6850
vt -35.6791 3.0758
vt -28.2972 3.0758
vn 0.0000 -1.0000 0.0000
vn -1.0000 0.0000 0.0000
vn 0.0000 1.0000 0.0000
vn 0.0000 0.0000 -1.0000
vn 0.0000 -0.0000 1.0000
vn 1.0000 0.0000 0.0000
usemtl Brick
s 1
f 37/97/13 38/98/13 39/99/13 40/100/13
f 37/101/14 41/102/14 38/103/14
f 37/101/14 42/104/14 41/102/14
f 42/104/14 37/101/14 43/105/14
f 44/106/14 43/105/14 37/101/14
f 43/105/14 44/106/14 45/107/14
f 45/107/14 44/106/14 46/108/14
f 46/109/15 44/110/15 47/111/15 48/112/15
f 44/113/16 37/114/16 40/115/16 47/116/16
f 38/117/17 46/118/17 48/119/17 39/120/17
f 38/103/14 49/121/14 46/108/14
f 38/103/14 41/102/14 49/121/14
f 49/121/14 41/102/14 50/122/14
f 50/122/14 41/102/14 51/123/14
f 51/123/14 41/102/14 52/124/14
f 52/124/14 41/102/14 53/125/14
f 54/126/14 53/125/14 41/102/14
f 54/126/14 55/127/14 53/125/14
f 56/128/14 55/127/14 54/126/14
f 55/127/14 56/128/14 51/123/14
f 50/122/14 51/123/14 56/128/14
f 50/129/17 56/130/17 57/131/17 58/132/17
f 59/133/13 43/105/13 45/134/13 60/135/13 57/136/13 56/137/13 54/138/13 61/139/13
f 59/140/17 62/141/17 42/104/17 43/105/17
f 61/142/18 63/143/18 62/144/18 59/145/18
f 54/146/16 41/147/16 63/148/16 61/149/16
f 63/150/15 41/151/15 42/152/15 62/153/15
f 45/154/16 49/155/16 64/156/16 60/157/16
f 45/107/14 46/108/14 49/121/14
f 49/158/13 50/159/13 58/160/13 64/161/13
f 55/162/16 51/163/16 65/164/16 66/165/16
f 51/166/13 52/167/13 67/168/13 65/169/13
f 52/170/17 53/171/17 68/172/17 67/173/17
f 53/174/15 55/175/15 66/176/15 68/177/15
usemtl Glass
f 39/178/14 48/179/14 47/180/14 40/181/14
f 64/182/14 58/183/14 57/184/14 60/185/14
f 65/186/14 67/187/14 68/188/14 66/189/14
o Mesh1_Group1_Model.003
v -0.007609 0.452282 -0.765977
v -0.007609 0.452282 -0.857993
v 0.042391 0.452282 -0.857993
v 0.042391 0.452282 -0.765977
v -0.007609 0.500024 -0.905735
v -0.007609 0.500024 -0.718235
v -0.007609 0.078149 -0.718235
v -0.007609 0.125890 -0.765977
v -0.007609 0.078149 -0.905735
v -0.007609 0.125890 -0.857993
v 0.042391 0.125890 -0.765977
v 0.042391 0.125890 -0.857993
v 0.042391 0.292020 -0.765977
v 0.042391 0.244278 -0.765977
v 0.042391 0.500024 -0.718235
v 0.042391 0.500024 -0.905735
v 0.042391 0.078149 -0.905735
v 0.042391 0.292020 -0.857993
v 0.042391 0.244278 -0.857993
v 0.042391 0.078149 -0.718235
vt 0.0000 1.8796
vt 0.0000 5.5023
vt -1.9685 5.5023
vt -1.9685 1.8796
vt -1.8796 14.7297
vt -7.3819 16.6093
vt -5.5023 14.7297
vt 0.0000 16.6093
vt 0.0000 0.0000
vt -1.8796 1.8796
vt -7.3819 0.0000
vt -5.5023 1.8796
vt 0.0000 5.5023
vt 0.0000 1.8796
vt 1.9685 1.8796
vt 1.9685 5.5023
vt -1.9685 8.4201
vt -1.9685 6.5405
vt -1.9685 1.8796
vt 0.0000 14.7297
vt -1.9685 14.7297
vt 1.8796 14.7297
vt 1.8796 6.5405
vt 1.8796 8.4201
vt 1.8796 1.8796
vt 0.0000 16.6093
vt 7.3819 16.6093
vt 5.5023 14.7297
vt 7.3819 -0.0000
vt 5.5023 8.4201
vt 5.5023 6.5405
vt 5.5023 1.8796
vt 0.0000 -0.0000
vt 1.9685 0.0000
vt 1.9685 16.6093
vt 1.9685 0.0000
vt 1.9685 7.3819
vt 0.0000 7.3819
vt 0.0000 0.0000
vt -1.9685 16.6093
vt -1.9685 0.0000
vt 0.0000 0.0000
vt 0.0000 16.6093
vt -1.9685 7.3819
vt -1.9685 0.0000
vt 0.0000 7.3819
vt 1.9685 6.5405
vt 1.9685 8.4201
vt 1.9685 14.7297
vt 0.0000 14.7297
vt 0.0000 1.8796
vt 1.9685 1.8796
vn 0.0000 -1.0000 0.0000
vn -1.0000 -0.0000 0.0000
vn 0.0000 1.0000 0.0000
vn 0.0000 0.0000 -1.0000
vn 1.0000 0.0000 0.0001
vn 0.0000 0.0000 1.0000
vn 1.0000 0.0000 0.0000
usemtl Metal.002
s 1
f 69/190/19 70/191/19 71/192/19 72/193/19
f 69/194/20 73/195/20 70/196/20
f 69/194/20 74/197/20 73/195/20
f 74/197/20 69/194/20 75/198/20
f 76/199/20 75/198/20 69/194/20
f 75/198/20 76/199/20 77/200/20
f 77/200/20 76/199/20 78/201/20
f 78/202/21 76/203/21 79/204/21 80/205/21
f 81/206/22 82/207/22 79/208/22 76/203/22 69/209/22 72/210/22
f 72/211/23 82/212/24 81/213/25
f 72/211/23 79/214/23 82/212/24
f 72/211/23 83/215/25 79/214/23
f 83/215/25 72/211/23 84/216/25
f 84/216/25 72/211/23 71/217/25
f 84/216/25 71/217/25 85/218/25
f 86/219/25 85/218/25 71/217/25
f 87/220/25 85/218/25 86/219/25
f 80/221/25 85/218/25 87/220/25
f 79/214/23 85/218/25 80/221/25
f 79/214/23 88/222/25 85/218/25
f 88/222/25 79/214/23 83/215/25
f 88/223/24 83/224/24 74/197/24 75/198/24
f 83/225/21 84/226/21 73/227/21 74/228/21
f 84/229/22 85/230/22 77/231/22 73/232/22
f 85/233/19 88/234/19 75/198/19 77/235/19
f 77/200/20 78/201/20 73/195/20
f 70/196/20 73/195/20 78/201/20
f 87/236/24 86/237/24 71/238/24 70/239/24 78/240/24 80/241/24
