# Blender v2.78 (sub 0) OBJ File: ''
# www.blender.org
mtllib modularBuildings_063.mtl
o Mesh1_Group1_Model
v 0.888225 0.190805 0.680412
v 0.888225 0.190805 0.319588
v 0.838225 0.190805 0.319588
v 0.838225 0.190805 0.680412
v 0.888225 0.125832 0.745385
v 0.888225 0.125832 0.254615
v 0.888225 0.268743 0.319588
v 0.888225 0.312772 0.254615
v 0.888225 0.410683 0.500000
v 0.489420 0.312772 0.254615
v 0.280543 0.410683 0.500000
v 0.050000 0.518750 0.000000
v 1.118770 0.017765 0.000000
v 1.118770 0.017765 1.000000
v 0.050000 0.518750 1.000000
v 0.489420 0.312772 0.745385
v 0.888225 0.312772 0.745385
v 0.382753 0.362772 0.745385
v 0.938225 0.312772 0.745385
v 0.938225 0.362772 0.745385
v 0.382753 0.362772 0.254615
v 0.938225 0.362772 0.254615
v 0.938225 0.312772 0.254615
v 0.173877 0.460683 0.500000
v 0.938225 0.460683 0.500000
v 0.938225 0.410683 0.500000
v 0.888225 0.340728 0.500000
v 0.838225 0.340728 0.500000
v 0.838225 0.268743 0.319588
v 0.888225 0.268743 0.680412
v 0.838225 0.268743 0.680412
v 0.000000 0.518750 0.000000
v 0.000000 0.518750 1.000000
v 1.090550 -0.042443 -0.000000
v 1.000000 0.000000 0.000000
v 0.000000 0.468750 0.000000
v 1.090550 -0.042443 1.000000
v 0.000000 0.468750 1.000000
v 1.000000 -0.000000 1.000000
v 0.000000 -0.000000 1.000000
v 0.000000 0.000000 0.000000
vt -34.9695 26.7879
vt -34.9695 12.5822
vt -33.0010 12.5822
vt -33.0010 26.7879
vt -29.3459 4.9540
vt -12.5822 7.5120
vt -26.7879 7.5120
vt -10.0242 4.9540
vt -12.5822 10.5804
vt -10.0242 12.3139
vt -19.6850 16.1686
vt 34.9695 12.3139
vt 19.2685 12.3139
vt 34.9695 4.9540
vt -19.2685 12.3139
vt -34.9695 12.3139
vt -34.9695 4.9540
vt -19.6850 13.4145
vt -29.3459 12.3139
vt 34.9695 15.6073
vt 34.9695 23.2547
vt 33.0010 23.2547
vt 33.0010 15.6073
vt -34.9695 -13.3120
vt -34.9695 -20.9593
vt -33.0010 -20.9593
vt -33.0010 -13.3120
vt -26.7879 10.5804
vt -34.9695 10.5804
vt -34.9695 7.5120
vt -33.0010 7.5120
vt -33.0010 10.5804
vt 34.9695 7.5120
vt 34.9695 10.5804
vt 33.0010 10.5804
vt 33.0010 7.5120
vt 0.0000 -0.0000
vt 39.3701 -0.0000
vt 0.0000 18.4547
vt 0.0000 0.0000
vt 39.3701 0.0000
vt 39.3701 39.3701
vt 0.0000 39.3701
vt 0.0000 18.4547
vt -39.3701 0.0000
vt 39.3701 0.0000
vt 39.3701 18.4547
vt 39.3701 20.4232
vt 0.0000 20.4232
vt -19.2685 13.8739
vt -11.0450 24.2754
vt -34.9695 24.2754
vt -34.9695 13.8739
vt -10.0242 -12.2204
vt -0.0000 6.8859
vt -19.6850 -3.1383
vt -10.0242 -29.5608
vt -0.0000 -39.5850
vt -39.3701 -39.5850
vt -29.3459 -29.5608
vt -39.3701 6.8859
vt -29.3459 -12.2204
vt 15.0690 14.2824
vt 36.9380 12.3139
vt 36.9380 14.2824
vt 11.0450 -12.2913
vt 19.2685 -22.6928
vt 34.9695 -22.6928
vt 34.9695 -12.2913
vt -15.0690 14.2824
vt -36.9380 14.2824
vt -36.9380 12.3139
vt -15.0690 14.6034
vt -6.8455 25.0049
vt -36.9380 25.0049
vt -36.9380 14.6034
vt 6.8455 -11.5618
vt 15.0690 -21.9633
vt 36.9380 -21.9633
vt 36.9380 -11.5618
vt -10.0242 14.2824
vt -19.6850 18.1371
vt -29.3459 14.2824
vt -29.3459 12.3139
vt -19.6850 16.1686
vt -10.0242 12.3139
vt -34.9695 -22.6928
vt -34.9695 -12.2913
vt -36.9380 -12.2913
vt -36.9380 -22.6928
vt 34.9695 24.2754
vt 34.9695 13.8739
vt 36.9380 13.8739
vt 36.9380 24.2754
vt -1.9685 39.3701
vt -1.9685 0.0000
vt 0.0000 0.0000
vt 0.0000 39.3701
vt -1.9685 20.4232
vt -44.0460 0.6994
vt -42.9349 -1.6710
vt 0.0000 16.7100
vt 0.0000 19.3279
vt -39.3701 19.3279
vt -39.3701 16.7100
vt 42.9349 -1.6710
vt 44.0460 0.6994
vt 1.9685 20.4232
vt 0.0000 20.4232
vt 39.3701 -35.6480
vt 0.0000 -35.6480
vt 0.0000 -39.5850
vt 39.3701 -39.5850
vt -12.5822 10.5804
vt -19.6850 13.4145
vt -26.7879 10.5804
vt -26.7879 7.5120
vt -12.5822 7.5120
vn 0.0000 1.0000 0.0000
vn 1.0000 0.0000 0.0000
vn 0.0000 0.0000 1.0000
vn 0.0000 0.0000 -1.0000
vn 0.0000 -0.9288 0.3706
vn 0.0000 -0.9288 -0.3706
vn 0.0000 -1.0000 -0.0000
vn -1.0000 0.0000 0.0000
vn 0.0000 0.9288 -0.3706
vn 0.4244 0.9055 -0.0000
vn 0.0000 0.9288 0.3706
vn 0.9055 -0.4244 -0.0000
vn -0.4244 -0.9055 -0.0000
usemtl Brick
s 1
f 1/1/1 2/2/1 3/3/1 4/4/1
f 5/5/2 2/6/2 1/7/2
f 6/8/2 2/6/2 5/5/2
f 2/6/2 6/8/2 7/9/2
f 8/10/2 7/9/2 6/8/2
f 7/9/2 8/10/2 9/11/2
f 17/12/3 16/13/3 5/14/3
f 10/15/4 8/16/4 6/17/4
f 27/18/2 9/11/2 17/19/2
f 7/9/2 9/11/2 27/18/2
f 7/20/5 27/21/5 28/22/5 29/23/5
f 27/24/6 30/25/6 31/26/6 28/27/6
f 27/18/2 17/19/2 30/28/2
f 30/28/2 17/19/2 1/7/2
f 5/5/2 1/7/2 17/19/2
f 30/29/4 1/30/4 4/31/4 31/32/4
f 2/33/3 7/34/3 29/35/3 3/36/3
f 40/37/3 39/38/3 38/39/3
f 41/40/7 35/41/7 39/42/7 40/43/7
f 41/40/4 36/44/4 35/45/4
f 40/46/8 38/47/8 33/48/8 32/49/8 36/44/8 41/40/8
usemtl Roof
f 10/50/9 11/51/9 9/52/9 8/53/9
f 10/54/10 12/55/10 11/56/10
f 6/57/10 12/55/10 10/54/10
f 6/57/10 13/58/10 12/55/10
f 13/58/10 6/57/10 14/59/10
f 5/60/10 14/59/10 6/57/10
f 14/59/10 5/60/10 15/61/10
f 15/61/10 5/60/10 16/62/10
f 18/63/3 16/13/3 17/12/3 19/64/3 20/65/3
f 11/66/11 16/67/11 17/68/11 9/69/11
f 15/61/10 16/62/10 11/56/10
f 10/54/10 11/56/10 16/62/10 5/60/10 6/57/10
f 10/15/4 21/70/4 22/71/4 23/72/4 8/16/4
f 21/73/9 24/74/9 25/75/9 22/76/9
f 24/77/11 18/78/11 20/79/11 25/80/11
f 22/81/2 25/82/2 20/83/2 19/84/2 26/85/2 23/86/2
f 17/87/6 9/88/6 26/89/6 19/90/6
f 9/91/5 8/92/5 23/93/5 26/94/5
f 15/61/10 11/56/10 12/55/10
f 15/95/1 12/96/1 32/97/1 33/98/1
f 12/99/4 13/100/4 34/101/4 35/45/4 36/44/4 32/49/4
f 34/102/12 13/103/12 14/104/12 37/105/12
f 38/39/3 39/38/3 37/106/3 14/107/3 15/108/3 33/109/3
f 39/110/13 35/111/13 34/112/13 37/113/13
usemtl Glass
f 29/114/2 28/115/2 31/116/2 4/117/2 3/118/2
