# Blender v2.78 (sub 0) OBJ File: ''
# www.blender.org
mtllib roadTile_019.mtl
o Mesh1_Group1_Model
v 0.059430 0.809501 -0.210774
v 0.141500 0.885812 -0.163390
v 0.141500 0.809501 -0.163390
v 0.059430 0.809501 -0.116007
v 0.141500 0.809501 -0.068624
v 0.223571 0.809501 -0.116007
v 0.283001 0.505792 -0.081695
v 0.141500 0.505792 0.000000
v 0.283001 0.505792 -0.245086
v 0.223571 0.809501 -0.210774
v 0.283001 0.275340 -0.081695
v 0.283001 0.275340 -0.245086
v 0.220740 0.228029 -0.117641
v 0.220740 0.228029 -0.209140
v 0.162015 0.228029 -0.142876
v 0.141500 0.228029 -0.071892
v 0.120986 0.228029 -0.142876
v 0.062260 0.228029 -0.117641
v 0.120986 0.228029 -0.183905
v 0.141500 0.228029 -0.254889
v 0.062260 0.228029 -0.209140
v 0.000000 0.275340 -0.081695
v 0.000000 0.275340 -0.245086
v 0.000000 0.505792 -0.081695
v 0.000000 0.505792 -0.245086
v 0.141500 0.275340 0.000000
v 0.141500 0.809501 -0.258157
v 0.141500 0.505792 -0.326781
v 0.141500 0.275340 -0.326781
v 0.162015 0.228029 -0.183905
v 0.109194 0.000000 -0.195697
v 0.173807 0.000000 -0.195697
v 0.109194 0.000000 -0.131084
v 0.173807 0.000000 -0.131084
vt 0.1541 2.3129
vt -0.1167 2.5309
vt -0.1167 2.3129
vt -0.3314 1.6993
vt -0.4668 2.0194
vt -0.6022 1.6993
vt 0.2521 1.8473
vt 0.1167 2.1675
vt -0.0187 1.8473
vt 0.5835 1.8714
vt 0.4482 1.5512
vt 0.7189 1.5512
vt 0.4043 0.1961
vt 0.6388 0.3314
vt 0.4043 0.4668
vt 0.1698 0.6022
vt 0.1698 0.3314
vt 0.8170 1.3794
vt 0.7189 2.2636
vt 0.4482 2.2636
vt 0.3501 1.3794
vt 0.2334 1.2629
vt 0.7002 1.2629
vt 0.6022 2.1471
vt 0.3314 2.1471
vt 0.2334 0.7867
vt 0.7002 0.7867
vt 0.7002 1.4451
vt 0.2334 1.4451
vt 0.3361 0.8963
vt 0.5975 0.8963
vt 0.7002 1.1198
vt 0.2334 1.1198
vt -0.6307 0.3361
vt -0.4629 0.4082
vt -0.6307 0.5975
vt -0.4043 0.2054
vt -0.3457 0.4082
vt -0.1779 0.3361
vt -0.3457 0.5254
vt -0.4043 0.7283
vt -0.1779 0.5975
vt -0.2334 0.4760
vt -0.7002 0.4760
vt -0.5975 0.2526
vt -0.3361 0.2526
vt -0.7002 0.7867
vt -0.2334 0.7867
vt -0.2334 1.4451
vt -0.7002 1.4451
vt -0.1167 0.7867
vt 0.3501 0.7867
vt 0.3501 1.4451
vt -0.1167 1.4451
vt 0.2474 0.0916
vt 0.3501 0.3150
vt -0.1167 0.3150
vt -0.0140 0.0916
vt 0.7143 0.4135
vt 0.8170 0.6369
vt 0.3501 0.6369
vt 0.4528 0.4135
vt 0.8170 0.7867
vt 0.8170 1.4451
vt 0.3501 1.4570
vt 0.2521 2.3412
vt -0.0187 2.3412
vt -0.1167 1.4570
vt -0.3314 2.3024
vt -0.6022 2.3024
vt -0.7002 1.4182
vt -0.2334 1.4182
vt -0.3501 1.3018
vt -0.4482 2.1860
vt -0.7189 2.1860
vt -0.8170 1.3018
vt 0.4043 0.7376
vt 0.6388 0.6022
vt -0.4482 1.2551
vt -0.5835 1.5753
vt -0.7189 1.2551
vt 0.0187 0.9591
vt -0.1167 1.2793
vt -0.2521 0.9591
vt 0.6022 1.1071
vt 0.4668 1.4273
vt 0.3314 1.1071
vt -0.3875 2.3129
vt 0.1167 1.2241
vt 0.0187 2.1083
vt -0.2521 2.1083
vt -0.3501 1.2241
vt -0.3501 0.7867
vt 0.1167 0.7867
vt 0.1167 1.4451
vt -0.3501 1.4451
vt 0.0140 1.0573
vt 0.1167 1.2807
vt -0.3501 1.2807
vt -0.2474 1.0573
vt -0.4528 0.7354
vt -0.3501 0.9588
vt -0.8170 0.9588
vt -0.7143 0.7354
vt -0.8170 0.7867
vt -0.3501 0.7867
vt -0.3501 1.4451
vt -0.8170 1.4451
vt -0.4629 0.5254
vt -0.3120 -0.0289
vt -0.3457 0.6235
vt -0.4629 0.6235
vt -0.4966 -0.0289
vt -0.3745 0.0161
vt -0.4082 0.6685
vt -0.5254 0.6685
vt -0.5591 0.0161
vt 0.4966 0.0193
vt 0.4629 0.6717
vt 0.3457 0.6717
vt 0.3120 0.0193
vt 0.3745 -0.0256
vt 0.5591 -0.0256
vt 0.5254 0.6267
vt 0.4082 0.6267
vt -0.3120 0.3745
vt -0.3120 0.5591
vt -0.4966 0.5591
vt -0.4966 0.3745
vn 0.5000 0.0000 -0.8660
vn -0.6809 0.7323 0.0000
vn -0.3405 0.7323 0.5897
vn 0.3405 0.7323 0.5897
vn 0.0000 1.0000 0.0000
vn 0.4977 0.0964 0.8620
vn 0.4907 0.1920 0.8499
vn 0.4977 0.0965 0.8620
vn 0.9953 0.0964 0.0000
vn 0.9814 0.1920 0.0000
vn 1.0000 0.0000 0.0000
vn 0.6050 -0.7962 0.0000
vn 0.0000 -1.0000 -0.0000
vn -0.6050 -0.7962 0.0000
vn -1.0000 0.0000 0.0000
vn -0.9953 0.0964 0.0000
vn -0.5000 -0.0000 0.8660
vn -0.4977 0.0965 0.8620
vn -0.4977 0.0964 0.8620
vn -0.3025 -0.7962 0.5240
vn 0.3025 -0.7962 0.5240
vn 0.5000 0.0000 0.8660
vn -0.4907 0.1920 0.8499
vn -0.9814 0.1920 0.0000
vn -0.4977 0.0965 -0.8620
vn -0.4907 0.1920 -0.8499
vn -0.3405 0.7323 -0.5897
vn 0.3405 0.7323 -0.5897
vn 0.6809 0.7323 0.0000
vn 0.4977 0.0965 -0.8620
vn 0.4907 0.1920 -0.8499
vn 0.4977 0.0964 -0.8620
vn 0.3025 -0.7962 -0.5240
vn -0.3025 -0.7962 -0.5240
vn -0.5000 0.0000 -0.8660
vn 0.0000 0.0516 -0.9987
vn -0.9987 0.0516 0.0000
vn 0.0000 0.0516 0.9987
vn 0.9987 0.0516 0.0000
usemtl Grass
s 1
f 1/1/1 2/2/1 3/3/1
f 4/4/2 2/5/2 1/6/2
f 5/7/3 2/8/3 4/9/3
f 2/10/4 5/11/4 6/12/4
f 5/13/5 6/14/5 3/15/5 1/16/5 4/17/5
f 7/18/6 6/19/7 5/20/7 8/21/8
f 7/22/9 9/23/9 10/24/10 6/25/10
f 11/26/11 12/27/11 9/28/9 7/29/9
f 13/30/12 14/31/12 12/32/12 11/33/12
f 13/34/13 15/35/13 14/36/13
f 16/37/13 15/35/13 13/34/13
f 16/37/13 17/38/13 15/35/13
f 18/39/13 17/38/13 16/37/13
f 17/38/13 18/39/13 19/40/13
f 18/39/13 20/41/13 19/40/13
f 20/41/13 18/39/13 21/42/13
f 22/43/14 23/44/14 21/45/14 18/46/14
f 23/47/15 22/48/15 24/49/16 25/50/16
f 22/51/17 26/52/17 8/53/18 24/54/19
f 16/55/20 26/56/20 22/57/20 18/58/20
f 13/59/21 11/60/21 26/61/21 16/62/21
f 26/52/22 11/63/22 7/64/6 8/53/8
f 8/65/18 5/66/23 4/67/23 24/68/19
f 4/69/24 1/70/24 25/71/16 24/72/16
f 25/73/25 1/74/26 27/75/26 28/76/25
f 27/77/5 1/16/5 3/15/5 6/14/5 10/78/5
f 1/79/27 2/80/27 27/81/27
f 27/82/28 2/83/28 10/84/28
f 10/85/29 2/86/29 6/87/29
f 2/2/1 6/88/1 3/3/1
f 28/89/30 27/90/31 10/91/31 9/92/32
f 12/93/1 29/94/1 28/95/30 9/96/32
f 20/97/33 29/98/33 12/99/33 14/100/33
f 21/101/34 23/102/34 29/103/34 20/104/34
f 29/105/35 23/106/35 25/107/25 28/108/25
f 30/109/13 20/41/13 14/36/13
f 19/40/13 20/41/13 30/109/13
f 30/109/13 14/36/13 15/35/13
usemtl Alternate_Dirt
f 31/110/36 19/111/36 30/112/36 32/113/36
f 33/114/37 17/115/37 19/116/37 31/117/37
f 34/118/38 15/119/38 17/120/38 33/121/38
f 34/122/39 32/123/39 30/124/39 15/125/39
f 33/126/13 31/127/13 32/128/13 34/129/13
