# Blender v2.78 (sub 0) OBJ File: ''
# www.blender.org
mtllib roadTile_150.mtl
o Mesh1_Group1_Model
v 0.945000 0.226800 0.000000
v 0.945000 0.226800 -0.135000
v 1.080000 0.226800 -0.135000
v 1.080000 0.226800 -0.270000
v 0.810000 0.226800 -0.270000
v 0.810000 0.226800 0.000000
v 0.945000 0.198000 0.000000
v 0.945000 0.198000 -0.135000
v 0.135000 0.226800 0.000000
v 0.135000 0.198000 0.000000
v 0.135000 0.000000 -0.000000
v 0.945000 0.000000 -0.000000
v 0.810000 0.216000 0.000000
v 0.810000 0.108000 0.000000
v 0.270000 0.108000 0.000000
v 0.270000 0.216000 0.000000
v 0.270000 0.226800 0.000000
v 0.135000 0.226800 -1.080000
v 0.135000 0.198000 -1.080000
v 0.270000 0.226800 -1.080000
v 0.945000 0.000000 -1.080000
v 0.135000 0.000000 -1.080000
v 0.270000 0.216000 -1.080000
v 0.270000 0.108000 -1.080000
v 0.810000 0.108000 -1.080000
v 0.810000 0.216000 -1.080000
v 0.810000 0.226800 -1.080000
v 0.945000 0.226800 -1.080000
v 0.945000 0.198000 -1.080000
v 0.000000 0.000000 0.000000
v 0.000000 0.000000 -1.080000
v 1.080000 0.000000 -1.080000
v 1.080000 0.000000 -0.945000
v 1.080000 0.000000 -0.135000
v 1.080000 0.000000 -0.000000
v 0.000000 0.198000 0.000000
v 0.000000 0.198000 -1.080000
v 1.080000 0.198000 -1.080000
v 0.945000 0.198000 -0.945000
v 1.080000 0.198000 -0.945000
v 0.945000 0.226800 -0.945000
v 1.080000 0.226800 -0.945000
v 0.810000 0.226800 -0.810000
v 1.080000 0.226800 -0.810000
v 1.080000 0.198000 -0.135000
v 1.080000 0.216000 -0.810000
v 1.080000 0.108000 -0.810000
v 1.080000 0.108000 -0.270000
v 1.080000 0.216000 -0.270000
v 1.080000 0.198000 0.000000
v 0.810000 0.216000 -0.810000
v 0.810000 0.216000 -0.270000
vt 2.6250 0.0000
vt 2.6250 0.3750
vt 3.0000 0.3750
vt 3.0000 0.7500
vt 2.2500 0.7500
vt 2.2500 0.0000
vt 0.3750 0.6300
vt 0.0000 0.6300
vt 0.0000 0.5500
vt 0.3750 0.5500
vt 0.3750 0.6300
vt 0.3750 0.5500
vt 0.3750 0.0000
vt 2.6250 0.0000
vt 2.6250 0.5500
vt 2.6250 0.6300
vt 2.2500 0.6300
vt 2.2500 0.6000
vt 2.2500 0.3000
vt 0.7500 0.3000
vt 0.7500 0.6000
vt 0.7500 0.6300
vt -0.0000 0.6300
vt -3.0000 0.6300
vt -3.0000 0.5500
vt -0.0000 0.5500
vt 0.7500 3.0000
vt 0.3750 3.0000
vt 0.3750 0.0000
vt 0.7500 0.0000
vt -2.6250 0.0000
vt -0.3750 0.0000
vt -0.3750 0.5500
vt -0.3750 0.6300
vt -0.7500 0.6300
vt -0.7500 0.6000
vt -0.7500 0.3000
vt -2.2500 0.3000
vt -2.2500 0.6000
vt -2.2500 0.6300
vt -2.6250 0.6300
vt -2.6250 0.5500
vt 3.0000 0.6300
vt 2.6250 0.6300
vt 2.6250 0.5500
vt 3.0000 0.5500
vt 3.0000 2.6250
vt 2.6250 2.6250
vt 2.6250 3.0000
vt 2.2500 3.0000
vt 2.2500 2.2500
vt 3.0000 2.2500
vt -2.6250 0.6300
vt -3.0000 0.6300
vt -3.0000 0.5500
vt -2.6250 0.5500
vt 0.3750 0.6300
vt 0.3750 0.5500
vt 0.3750 0.0000
vt 2.6250 0.0000
vt 2.6250 0.5500
vt 2.6250 0.6300
vt 2.2500 0.6300
vt 2.2500 0.6000
vt 2.2500 0.3000
vt 0.7500 0.3000
vt 0.7500 0.6000
vt 0.7500 0.6300
vt 3.0000 0.6300
vt 2.6250 0.6300
vt 2.6250 0.5500
vt 3.0000 0.5500
vt 2.2500 0.6000
vt 3.0000 0.6000
vt 3.0000 0.6300
vt 2.2500 0.6300
vt 3.0000 0.6300
vt 0.0000 0.6300
vt 0.0000 0.6000
vt 3.0000 0.6000
vt -0.7500 0.6000
vt -0.0000 0.6000
vt -0.0000 0.6300
vt -0.7500 0.6300
vt -3.0000 0.6000
vt -2.2500 0.6000
vt -2.2500 0.6300
vt -3.0000 0.6300
vt -3.0000 0.6000
vt -2.2500 0.6000
vt -2.2500 0.6300
vt -3.0000 0.6300
vt -0.3750 0.0000
vt 0.0000 0.0000
vt -0.0000 3.0000
vt -0.3750 3.0000
vt -2.6250 3.0000
vt -3.0000 3.0000
vt -3.0000 2.6250
vt -3.0000 0.3750
vt -3.0000 0.0000
vt -2.6250 0.0000
vt 0.0000 0.5500
vt 0.0000 0.0000
vt 0.3750 0.0000
vt 0.3750 3.0000
vt 0.0000 3.0000
vt -0.0000 0.5500
vt -0.0000 0.0000
vt -3.0000 0.0000
vt -3.0000 0.5500
vt -3.0000 0.0000
vt -3.0000 0.5500
vt 2.6250 3.0000
vt 2.6250 2.6250
vt 3.0000 2.6250
vt 3.0000 3.0000
vt 3.0000 0.3750
vt 2.6250 0.3750
vt 2.6250 0.0000
vt 3.0000 0.0000
vt 3.0000 0.5500
vt 3.0000 0.0000
vt 0.0000 0.0000
vt 0.0000 0.5500
vt 3.0000 0.5500
vt 3.0000 0.0000
vt 0.7500 3.0000
vt 0.7500 0.0000
vt 2.2500 0.0000
vt 2.2500 0.7500
vt 3.0000 0.7500
vt 3.0000 2.2500
vt 2.2500 2.2500
vt 2.2500 3.0000
vn 0.0000 1.0000 0.0000
vn 1.0000 0.0000 0.0000
vn -0.0000 -0.0000 1.0000
vn -1.0000 0.0000 0.0000
vn 0.0000 0.0000 -1.0000
vn -0.0000 -1.0000 -0.0000
usemtl Stone
s 1
f 1/1/1 2/2/1 3/3/1 4/4/1 5/5/1 6/6/1
f 2/7/2 1/8/2 7/9/2 8/10/2
f 9/11/3 10/12/3 11/13/3 12/14/3 7/15/3 1/16/3 6/17/3 13/18/3 14/19/3 15/20/3 16/21/3 17/22/3
f 9/23/4 18/24/4 19/25/4 10/26/4
f 20/27/1 18/28/1 9/29/1 17/30/1
f 21/31/5 22/32/5 19/33/5 18/34/5 20/35/5 23/36/5 24/37/5 25/38/5 26/39/5 27/40/5 28/41/5 29/42/5
f 28/43/2 41/44/2 39/45/2 29/46/2
f 42/47/1 41/48/1 28/49/1 27/50/1 43/51/1 44/52/1
f 41/53/5 42/54/5 40/55/5 39/56/5
f 3/57/2 45/58/2 34/59/2 33/60/2 40/61/2 42/62/2 44/63/2 46/64/2 47/65/2 48/66/2 49/67/2 4/68/2
f 3/69/3 2/70/3 8/71/3 45/72/3
f 51/73/3 46/74/3 44/75/3 43/76/3
f 20/77/2 17/78/2 16/79/2 23/80/2
f 52/81/4 13/82/4 6/83/4 5/84/4
f 49/85/5 52/86/5 5/87/5 4/88/5
f 26/89/4 51/90/4 43/91/4 27/92/4
usemtl Grass
f 11/93/6 30/94/6 31/95/6 22/96/6 21/97/6 32/98/6 33/99/6 34/100/6 35/101/6 12/102/6
f 30/94/3 11/13/3 10/12/3 36/103/3
f 36/104/1 10/105/1 19/106/1 37/107/1
f 37/108/5 19/33/5 22/32/5 31/109/5
f 31/110/4 30/94/4 36/103/4 37/111/4
f 32/112/5 21/31/5 29/42/5 38/113/5
f 29/114/1 39/115/1 40/116/1 38/117/1
f 45/118/1 8/119/1 7/120/1 50/121/1
f 50/122/3 7/15/3 12/14/3 35/123/3
f 35/124/2 34/59/2 45/58/2 50/125/2
f 38/126/2 40/61/2 33/60/2 32/127/2
usemtl Asphalt
f 23/128/1 16/129/1 13/130/1 52/131/1 49/132/1 46/133/1 51/134/1 26/135/1
f 16/21/3 15/20/3 14/19/3 13/18/3
f 49/67/2 48/66/2 47/65/2 46/64/2
f 26/39/5 25/38/5 24/37/5 23/36/5
